<?xml version="1.0" encoding="utf-8"?>
<!-- Generator: Adobe Illustrator 26.4.1, SVG Export Plug-In . SVG Version: 6.00 Build 0)  -->
<svg version="1.1" id="Layer_1" xmlns="http://www.w3.org/2000/svg" xmlns:xlink="http://www.w3.org/1999/xlink" x="0px" y="0px"
	 viewBox="0 0 848.6 494.1" style="enable-background:new 0 0 848.6 494.1;" xml:space="preserve">
<style type="text/css">
	.st0{fill-rule:evenodd;clip-rule:evenodd;fill:#14151A;stroke:#FFFFFF;stroke-width:25;stroke-miterlimit:10;}
	.st1{fill:#FFFFFF;stroke:#14151A;stroke-width:21;stroke-miterlimit:10;}
</style>
<g>
	<path class="st0" d="M420.6,33L283.4,285c-3,5.6-4.7,12.3-4.7,19.1v133.4c0,19.1,12.8,34.5,28.5,34.5h137.2
		c15.7,0,28.5-15.4,28.5-34.5V52.1C472.8,17.7,436.1,4.4,420.6,33L420.6,33z"/>
	<path class="st0" d="M226.8,33.1L17.5,418.4c-12.5,23,1,53.6,23.7,53.6h125.6c9.5,0,18.5-5.8,23.7-15.5l83.8-154.2
		c3-5.6,4.7-12.3,4.7-19V52.1C279.1,17.8,242.4,4.5,226.8,33.1L226.8,33.1z"/>
</g>
<path class="st1" d="M817.7,416.8L657.4,201.1c-6.6-8.9-17.6-14.3-29.3-14.3h-54.8c-19.6,0-35.5,14.6-35.5,32.7v215.7
	c0,18.1,15.9,32.7,35.5,32.7h215.1C817,468.1,833.9,438.5,817.7,416.8L817.7,416.8z"/>
<path class="st1" d="M692.7,170.9L770.9,65c12.2-16.5,0.4-40-20.1-40H594.3c-20.6,0-32.4,23.4-20.1,40l78.2,105.9
	C662.3,184.5,682.6,184.5,692.7,170.9L692.7,170.9z"/>
</svg>
