<?xml version="1.0" encoding="utf-8"?>
<!-- Generator: Adobe Illustrator 26.4.1, SVG Export Plug-In . SVG Version: 6.00 Build 0)  -->
<svg version="1.1" id="Layer_1" xmlns="http://www.w3.org/2000/svg" xmlns:xlink="http://www.w3.org/1999/xlink" x="0px" y="0px"
	 viewBox="0 0 1039.8 581.5" style="enable-background:new 0 0 1039.8 581.5;" xml:space="preserve">
<style type="text/css">
	.st0{fill-rule:evenodd;clip-rule:evenodd;fill:#FFFFFF;stroke:#1F2128;stroke-width:2.5;stroke-miterlimit:10;}
	.st1{fill:#1F2128;stroke:#FFFFFF;stroke-width:2.5;stroke-miterlimit:10;}
</style>
<g>
	<path class="st0" d="M629.7,17.5c0-5.3-2.4-6.1-5.3-1.6L386.9,375.6c-2.9,4.5-5.3,12.5-5.3,17.8V562c0,5.3,4.4,9.7,9.7,9.7H620
		c5.3,0,9.7-4.4,9.7-9.7L629.7,17.5L629.7,17.5z"/>
	<path class="st0" d="M382,17.5c0-5.3-2.4-6.1-5.3-1.6l-361,547.6c-2.9,4.5-1,8.1,4.4,8.1h228.4c5.3,0,12.1-3.6,15-8.1l113.2-171.8
		c2.9-4.5,5.3-12.5,5.3-17.8L382,17.5L382,17.5z"/>
</g>
<path class="st1" d="M1016.9,571.6c5.3,0,7.2-3.6,4.2-8L790.8,228c-3-4.4-9.9-8-15.2-8H669.2c-5.3,0-9.7,4.4-9.7,9.7v332.3
	c0,5.3,4.4,9.7,9.7,9.7L1016.9,571.6L1016.9,571.6z"/>
<path class="st1" d="M780.4,213c2.7,4.6,7.1,4.6,9.8,0L906.1,16.2c2.7-4.6,0.6-8.4-4.8-8.4H669.2c-5.3,0-7.5,3.8-4.8,8.4L780.4,213
	L780.4,213z"/>
</svg>
